<?xml version="1.0" encoding="UTF-8"?>
<svg id="_레이어_2" data-name="레이어 2" xmlns="http://www.w3.org/2000/svg" viewBox="0 0 134.54 145.52">
  <defs>
    <style>
      .cls-1 {
        fill: #080808;
      }

      .cls-2 {
        fill: #00c4be;
      }

      .cls-3 {
        fill: none;
        stroke: #080808;
        stroke-miterlimit: 10;
        stroke-width: 2px;
      }
    </style>
  </defs>
  <g id="_레이어_1-2" data-name="레이어 1">
    <g>
      <g>
        <circle class="cls-1" cx="94.72" cy="105.7" r="39.82"/>
        <path class="cls-2" d="M89.85,87.11h9.76l-.61,27.43h-8.53l-.61-27.43ZM90.46,116.98h8.53v7.31h-8.53v-7.31Z"/>
      </g>
      <path class="cls-3" d="M85.48,77.33c-.31-4.48-1.99-20.69-15.27-34.64-13.08-13.73-28.88-16.31-33.38-16.88"/>
      <polygon class="cls-1" points="13.58 0 23.4 6.89 33.93 1.15 34.67 13.12 45.72 17.77 36.82 25.81 40.08 37.35 28.24 35.41 21.25 45.15 15.39 34.68 3.41 35.29 7.94 24.18 0 15.19 11.51 11.81 13.58 0"/>
    </g>
  </g>
</svg>